# xmcd CD database file generated by Grip 3.0.5
# 
# Track frame offsets:
#       183
#       14650
#       29925
#       44785
#       57363
#       69935
#       82675
#       94900
#       110845
#       125233
#       139918
#       152528
#       167148
#       180308
#       193290
#       205273
#       219768
#       232245
#       247183
#       260400
#       274068
#       286078
#       297948
#       309913
# 
# Disc length: 4285 seconds
# 
# Revision: 1
# Processed by: cddbd v1.5.1PL0 Copyright (c) Steve Scherf et al.
# Submitted via: Grip 3.0.5
# 
DISCID=7510bb18
DTITLE=Duke Ellington - Volume 3:  1927-1928
DYEAR=1991
DGENRE=Jazz
TTITLE0=What Can A Poor Fellow Do?
TTITLE1=Black And Tan Fantasy
TTITLE2=Black And Tan Fantasy
TTITLE3=Chicago Stomp Down
TTITLE4=Harlem River Quiver (Brown Berries)
TTITLE5=Harlem River Quiver (Brown Berries)
TTITLE6=Harlem River Quiver (Brown Berries)
TTITLE7=East St. Louis Toodle-Oo
TTITLE8=Blue Bubbles
TTITLE9=Blue Bubbles
TTITLE10=Red Hot Band
TTITLE11=Doin' The Frog
TTITLE12=Sweet Mama
TTITLE13=Stack O'Lee Blues
TTITLE14=Bugle Call Rag
TTITLE15=Take It Easy
TTITLE16=Jubilee Stomp
TTITLE17=Harlem Twist (East St. Louis Toodle-Oo)
TTITLE18=East St. Louis Toodle-Oo
TTITLE19=East St. Louis Toodle-Oo
TTITLE20=Jubilee Stomp
TTITLE21=Jubilee Stomp
TTITLE22=Take It Easy
TTITLE23=Take It Easy
EXTD=YEAR: 1992
EXTT0=
EXTT1=
EXTT2=
EXTT3=
EXTT4=
EXTT5=
EXTT6=
EXTT7=
EXTT8=
EXTT9=
EXTT10=
EXTT11=
EXTT12=
EXTT13=
EXTT14=
EXTT15=
EXTT16=
EXTT17=
EXTT18=
EXTT19=
EXTT20=
EXTT21=
EXTT22=
EXTT23=
PLAYORDER=
